<mxfile host="app.diagrams.net" modified="2023-04-14T02:44:06.489Z" agent="Mozilla/5.0 (X11; Linux x86_64; rv:91.0) Gecko/20100101 Firefox/91.0" version="21.1.6" etag="CjNmYmkH3mjB26zb0kds" type="github">
  <diagram name="第 1 页" id="pvW5DdFDqltU3lUuFQCv">
    <mxGraphModel>
      <root>
        <mxCell id="0" />
        <mxCell id="1" parent="0" />
      </root>
    </mxGraphModel>
  </diagram>
</mxfile>
